<svg xmlns="http://www.w3.org/2000/svg" viewBox="0 0 630.89 192.28">
  <defs>
    <style>
      .cls-1,
      .cls-2,
      .cls-3 {
        fill: #1B3164;
      }
      .cls-1 {
        fill-rule: evenodd;
      }
      .cls-2 {
        font-size: 100px;
        font-family: Arial-BoldMT, Arial;
        font-weight: 700;
      }
      .cls-2,
      .cls-3,
      .cls-5 {
        stroke: #1B3164;
      }
      .cls-2,
      .cls-3 {
        stroke-miterlimit: 45;
        stroke-width: 0.22px;
      }
      .cls-3 {
        font-size: 28px;
        font-family: ArialMT, Arial;
      }
      .cls-4 {
        letter-spacing: -0.07em;
      }
      .cls-5 {
        fill: none;
        stroke-miterlimit: 2.61;
        stroke-width: 5px;
      }
    </style>
  </defs>
  <title>LEDUONGTECHLOGO</title>
  <path
    class="cls-1"
    d="M159.46,125.37c-4.28-12.27-16-32.22-22.74-40.57C128.88,75.16,70.47,44.72,55.55,37c-6.73-3.5-38.06-21.09-42.13-22.3-1.59,46.82,31.79,49.4,65.33,62.87C107.09,88.91,140.33,102.22,159.46,125.37Z"
  />
  <path
    class="cls-1"
    d="M173.77,156.84c-4.23-9.67-18.12-31.33-28.46-36.42-3-1.48-5.94-3-9-4.45-6.09-2.87-11.7-5.4-18.09-8.14C112.41,105.35,48.64,77,44.44,76.3c2.23,37.53,27.44,37.46,58,46.47a346.21,346.21,0,0,1,38.94,13.58C156.15,142.67,164.29,148.66,173.77,156.84Z"
  />
  <path
    class="cls-1"
    d="M167.58,158.92c-8-5.57-85.91-31.35-97-34.74a26.65,26.65,0,0,0,17.91,26.14c14.24,5,45.77,9.82,70.56,17.93,9,2.93,21.88,8.81,28.86,14.23C184.39,176.3,173.83,163.28,167.58,158.92Z"
  />
  <text class="cls-2" transform="translate(187.03 111.31)">LeDuong</text>
  <text class="cls-3" transform="translate(191.08 168.42)">
    TECHNIQUE.
    <tspan class="cls-4" x="180.46" y="0">P</tspan>
    <tspan x="197.05" y="0">ASSION. POWER </tspan>
  </text>
  <line class="cls-5" x1="198.57" y1="129.51" x2="533.06" y2="129.51" />
</svg>
